HIERARCHY
ROOT Hips
{
	OFFSET -0.001795 -0.223333 0.028219
	CHANNELS 6 Xposition Yposition Zposition Zrotation Yrotation Xrotation 
	JOINT LeftUpLeg
	{
		OFFSET 0.069520 -0.091406 -0.006815
		CHANNELS 3 Zrotation Yrotation Xrotation
		JOINT LeftLeg
		{
			OFFSET 0.034277 -0.375199 -0.004496
			CHANNELS 3 Zrotation Yrotation Xrotation
			JOINT LeftFoot
			{
				OFFSET -0.013596 -0.397961 -0.043693
				CHANNELS 3 Zrotation Yrotation Xrotation
				JOINT LeftToe
				{
					OFFSET 0.026358 -0.055791 0.119288
					CHANNELS 3 Zrotation Yrotation Xrotation
					End Site
					{
						OFFSET 0.000000 0.000000 0.000000
					}
				}
			}
		}
	}
	JOINT RightUpLeg
	{
		OFFSET -0.067670 -0.090522 -0.004320
		CHANNELS 3 Zrotation Yrotation Xrotation
		JOINT RightLeg
		{
			OFFSET -0.038290 -0.382569 -0.008850
			CHANNELS 3 Zrotation Yrotation Xrotation
			JOINT RightFoot
			{
				OFFSET 0.015774 -0.398415 -0.042312
				CHANNELS 3 Zrotation Yrotation Xrotation
				JOINT RightToe
				{
					OFFSET -0.025372 -0.048144 0.123348
					CHANNELS 3 Zrotation Yrotation Xrotation
					End Site
					{
						OFFSET 0.000000 0.000000 0.000000
					}
				}
			}
		}
	}
	JOINT Spine
	{
		OFFSET -0.002533 0.108963 -0.026696
		CHANNELS 3 Zrotation Yrotation Xrotation
		JOINT Spine1
		{
			OFFSET 0.005487 0.135180 0.001092
			CHANNELS 3 Zrotation Yrotation Xrotation
			JOINT Spine2
			{
				OFFSET 0.001457 0.052922 0.025425
				CHANNELS 3 Zrotation Yrotation Xrotation
				JOINT Neck
				{
					OFFSET -0.002778 0.213870 -0.042857
					CHANNELS 3 Zrotation Yrotation Xrotation
					JOINT Head
					{
						OFFSET 0.005152 0.064970 0.051349
						CHANNELS 3 Zrotation Yrotation Xrotation
						End Site
						{
							OFFSET 0.000000 0.000000 0.000000
						}
					}
				}
				JOINT LeftShoulder
				{
					OFFSET 0.078845 0.121749 -0.034090
					CHANNELS 3 Zrotation Yrotation Xrotation
					JOINT LeftArm
					{
						OFFSET 0.090977 0.030469 -0.008868
						CHANNELS 3 Zrotation Yrotation Xrotation
						JOINT LeftForeArm
						{
							OFFSET 0.259612 -0.012772 -0.027456
							CHANNELS 3 Zrotation Yrotation Xrotation
							JOINT LeftHand
							{
								OFFSET 0.249234 0.008986 -0.001171
								CHANNELS 3 Zrotation Yrotation Xrotation
								End Site
								{
									OFFSET 0.000000 0.000000 0.000000
								}
							}
						}
					}
				}
				JOINT RightShoulder
				{
					OFFSET -0.081759 0.118833 -0.038615
					CHANNELS 3 Zrotation Yrotation Xrotation
					JOINT RightArm
					{
						OFFSET -0.096012 0.032551 -0.009143
						CHANNELS 3 Zrotation Yrotation Xrotation
						JOINT RightForeArm
						{
							OFFSET -0.253742 -0.013329 -0.021401
							CHANNELS 3 Zrotation Yrotation Xrotation
							JOINT RightHand
							{
								OFFSET -0.255298 0.007772 -0.005559
								CHANNELS 3 Zrotation Yrotation Xrotation
								End Site
								{
									OFFSET 0.000000 0.000000 0.000000
								}
							}
						}
					}
				}
			}
		}
	}
}
MOTION
Frames: 10
Frame Time: 0.050000
-0.126986 0.913623 1.806229 -176.804952 -5.507576 170.976205 20.554600 27.064676 24.281616 50.598240 27.458337 41.787935 -42.979680 18.715475 51.178572 0.000000 0.000000 0.000000 8.060724 1.434952 -12.754441 12.175881 16.052304 20.718063 -113.355563 56.516688 4.510717 0.000000 0.000000 0.000000 5.238983 6.293916 21.932842 65.495353 44.848315 29.492843 -75.052765 -60.073530 25.417103 -74.626024 -47.033746 41.329863 0.000000 0.000000 0.000000 6.685750 13.418566 173.170948 77.519520 -10.126342 16.774900 4.353954 42.493189 -1.133954 0.000000 0.000000 0.000000 21.645887 -29.856219 81.692072 -3.839382 55.533589 -11.575927 -11.091543 2.860289 -0.510753 0.000000 0.000000 0.000000 
-0.118866 0.926619 1.728979 -177.200469 -2.988401 170.856973 11.586569 18.073587 9.889216 90.276161 29.613742 77.524968 -56.236034 18.262063 52.159018 0.000000 0.000000 0.000000 10.152573 0.720869 -4.760900 6.426498 12.161749 16.077715 -121.695923 50.544908 -6.251667 0.000000 0.000000 0.000000 3.868151 6.310072 21.430050 60.101172 43.985297 27.044605 -62.167955 -56.470014 17.365145 -73.528087 -47.124620 43.716763 0.000000 0.000000 0.000000 3.537657 15.793394 161.105937 74.771467 -21.472427 9.306456 13.671204 36.840749 2.463492 0.000000 0.000000 0.000000 18.062388 -28.209709 91.993415 -22.797220 57.291827 -21.248467 -12.960019 2.952978 -0.992930 0.000000 0.000000 0.000000 
-0.112848 0.938243 1.654058 -177.841051 -0.804776 170.278486 7.428783 14.408615 -1.876600 105.952636 22.673346 91.529580 -77.888400 27.749436 51.966938 0.000000 0.000000 0.000000 12.064916 3.163197 3.577903 1.524805 8.031535 11.540709 -117.499806 47.317119 -7.203906 0.000000 0.000000 0.000000 3.409820 7.197261 22.295465 55.475080 43.544891 24.878014 -55.322854 -52.130349 12.814393 -83.451941 -47.121785 52.651418 0.000000 0.000000 0.000000 0.974223 19.502426 145.741784 69.501757 -34.665382 -1.561872 24.444585 26.718160 4.232624 0.000000 0.000000 0.000000 14.373018 -27.965855 101.491060 -38.974088 55.542796 -29.083811 -18.391882 2.550696 -1.533926 0.000000 0.000000 0.000000 
-0.107710 0.943637 1.579761 -179.058869 3.044056 169.830644 6.427304 -6.836595 -9.492726 -80.945426 -32.769693 56.987360 -4.334322 -45.544772 137.265903 0.000000 0.000000 0.000000 9.755307 -7.084390 11.117068 -6.994994 -9.020370 8.208227 121.674532 -9.553399 -32.745181 0.000000 0.000000 0.000000 -3.538555 -7.062687 21.153982 -31.163791 -38.731878 19.529236 27.467079 56.869056 -4.672564 -88.442215 -45.505943 56.955118 0.000000 0.000000 0.000000 1.994244 19.003249 146.572440 67.468822 -35.633720 -2.439828 24.618432 25.680703 4.331980 0.000000 0.000000 0.000000 13.192671 -27.315264 103.567368 -47.600988 54.337877 -32.798192 -24.134362 1.830888 -1.891200 0.000000 0.000000 0.000000 
-0.102668 0.939431 1.505693 -178.879194 6.078171 169.166183 6.999035 -7.564980 -16.735482 -44.475879 -29.067978 32.374482 -27.732939 -70.151480 160.024148 0.000000 0.000000 0.000000 6.243854 -14.701935 19.213011 -6.774770 -5.320924 3.986661 120.196925 -12.127959 -27.826559 0.000000 0.000000 0.000000 -3.116207 -7.240690 21.579553 -27.114272 -34.883225 14.373024 23.552325 56.378453 -5.516835 -82.914417 -46.096445 54.133149 0.000000 0.000000 0.000000 4.100845 18.503939 152.360318 68.147540 -32.924366 -1.850561 24.141104 27.565107 4.509162 0.000000 0.000000 0.000000 12.239815 -26.899301 101.294798 -51.901283 54.620151 -33.659792 -29.569512 0.285791 -1.528801 0.000000 0.000000 0.000000 
-0.097649 0.926880 1.431188 -178.009383 7.871791 170.498506 6.822539 -8.505846 -20.650723 -13.215979 -13.671995 7.147981 45.783916 -53.840198 54.430056 0.000000 0.000000 0.000000 3.410298 -19.401276 23.628726 -7.065559 -5.027157 4.030124 121.035724 -12.746321 -23.311234 0.000000 0.000000 0.000000 -2.736119 -7.074000 21.144556 -23.286582 -31.698385 11.120686 20.794205 53.782844 -7.980574 -76.296130 -47.221491 48.365835 0.000000 0.000000 0.000000 5.160225 20.615409 155.282848 67.322312 -32.977044 -3.434950 22.295775 25.435871 3.367572 0.000000 0.000000 0.000000 9.472006 -25.006448 100.045937 -53.913483 57.131785 -33.482824 -32.242237 -1.791779 -0.702858 0.000000 0.000000 0.000000 
-0.093916 0.912412 1.353364 -177.615794 9.549371 170.742591 6.819177 -8.651516 -21.295185 -7.805148 -11.391862 -0.719320 36.932903 -41.208220 51.081027 0.000000 0.000000 0.000000 -1.552360 -25.335127 29.736747 -9.623301 -4.319305 5.007415 117.949334 -13.408866 -16.695930 0.000000 0.000000 0.000000 -3.106197 -5.620171 19.503433 -22.967022 -31.550708 11.060019 22.574456 53.948199 -5.388184 -81.358955 -47.319560 49.222148 0.000000 0.000000 0.000000 0.722118 23.979045 144.245430 60.033328 -39.299749 -5.266619 24.651078 19.505728 3.274733 0.000000 0.000000 0.000000 9.530509 -25.061357 101.854962 -58.911247 54.260845 -34.759503 -35.451280 -3.175587 -0.360725 0.000000 0.000000 0.000000 
-0.092520 0.898594 1.268186 -177.828977 11.936055 171.319822 5.333265 -7.831677 -21.328954 -7.335817 -9.537106 4.142933 39.571750 -38.156028 44.502035 0.000000 0.000000 0.000000 -11.199446 -29.863268 35.811141 -11.054735 -5.229680 7.311339 113.777811 -18.510486 -6.445387 0.000000 0.000000 0.000000 -3.971605 -4.158033 17.353457 -27.564155 -33.509124 15.361982 25.645840 57.519117 -6.060204 -69.243892 -47.686125 39.928439 0.000000 0.000000 0.000000 4.418492 21.235443 162.938155 66.813946 -28.431842 0.830053 16.355372 28.119419 2.494195 0.000000 0.000000 0.000000 14.929144 -24.416353 91.208492 -43.494219 56.110379 -28.743221 -35.396710 6.225631 -3.346914 0.000000 0.000000 0.000000 
-0.093768 0.895878 1.174356 -179.570178 11.921757 170.233106 0.436079 -5.075873 -18.846522 -9.164496 -11.219896 12.385455 54.681755 -43.952573 35.168171 0.000000 0.000000 0.000000 -20.366396 -32.594675 39.814949 -16.413239 -8.011420 12.571302 96.433155 -24.176605 6.995220 0.000000 0.000000 0.000000 -6.384298 -4.197505 16.656402 -27.524049 -33.142362 15.247542 26.276881 56.114081 -4.243462 -67.633482 -47.803006 38.246942 0.000000 0.000000 0.000000 5.270922 21.671588 167.041548 68.395650 -26.267613 1.370098 14.646058 30.645324 2.065974 0.000000 0.000000 0.000000 15.653861 -25.278341 85.935262 -36.852897 60.715357 -26.967764 -32.960412 9.690416 -3.903420 0.000000 0.000000 0.000000 
-0.096714 0.906276 1.082703 178.908175 11.468223 169.117730 -4.348575 -2.370130 -14.826658 -9.910801 -13.258493 18.196447 70.550080 -48.255565 26.747073 0.000000 0.000000 0.000000 -18.446003 -28.366023 32.324269 -34.119763 -20.088978 29.850729 74.253233 -31.514853 32.244283 0.000000 0.000000 0.000000 -8.307164 -6.057987 19.887632 -20.324404 -28.174559 5.776724 23.098197 49.021645 -4.007758 -72.977522 -48.283564 41.395291 0.000000 0.000000 0.000000 -0.419113 24.071208 154.801803 61.943577 -33.486754 -0.402001 16.836753 27.260188 2.758483 0.000000 0.000000 0.000000 17.783852 -28.010318 80.932514 -20.649660 62.202072 -18.667503 -30.927796 14.832282 -4.954832 0.000000 0.000000 0.000000 
